# Blender v2.92.0 OBJ File: ''
# www.blender.org
o Sphere
v 0.000000 1.000000 0.000000
v 0.000000 0.923880 -0.382683
v 0.000000 0.707107 -0.707107
v 0.000000 0.382683 -0.923880
v 0.000000 -0.000000 -1.000000
v 0.000000 -0.923880 -0.382683
v 0.155651 0.923880 -0.349599
v 0.287606 0.707107 -0.645974
v 0.375776 0.382683 -0.844006
v 0.406737 -0.000000 -0.913545
v 0.375776 -0.382684 -0.844006
v 0.287606 -0.707107 -0.645974
v 0.155651 -0.923880 -0.349599
v 0.284389 0.923880 -0.256065
v 0.525483 0.707107 -0.473147
v 0.686576 0.382683 -0.618196
v 0.743145 -0.000000 -0.669131
v 0.686576 -0.382684 -0.618196
v 0.525483 -0.707107 -0.473147
v 0.284389 -0.923880 -0.256065
v 0.363953 0.923880 -0.118256
v 0.672498 0.707107 -0.218508
v 0.878661 0.382683 -0.285494
v 0.951056 -0.000000 -0.309017
v 0.878661 -0.382684 -0.285494
v 0.672498 -0.707107 -0.218508
v 0.363953 -0.923880 -0.118256
v 0.380587 0.923880 0.040001
v 0.703233 0.707107 0.073913
v 0.918818 0.382683 0.096572
v 0.994522 -0.000000 0.104528
v 0.918818 -0.382684 0.096572
v 0.703233 -0.707107 0.073913
v 0.380587 -0.923880 0.040001
v 0.331413 0.923880 0.191342
v 0.612372 0.707107 0.353553
v 0.800103 0.382683 0.461940
v 0.866025 -0.000000 0.500000
v 0.800103 -0.382684 0.461940
v 0.612372 -0.707107 0.353553
v 0.331413 -0.923880 0.191342
v 0.224936 0.923880 0.309597
v 0.415627 0.707107 0.572061
v 0.543042 0.382683 0.747434
v 0.587785 -0.000000 0.809017
v 0.543042 -0.382684 0.747434
v 0.415627 -0.707107 0.572061
v 0.224936 -0.923880 0.309597
v 0.079564 0.923880 0.374321
v 0.147016 0.707107 0.691654
v 0.192085 0.382683 0.903690
v 0.207911 -0.000000 0.978147
v 0.192085 -0.382684 0.903690
v 0.147016 -0.707107 0.691654
v 0.079564 -0.923880 0.374321
v -0.079564 0.923880 0.374321
v -0.147016 0.707107 0.691654
v -0.192085 0.382683 0.903690
v -0.207912 -0.000000 0.978147
v -0.192085 -0.382684 0.903690
v -0.147016 -0.707107 0.691654
v -0.079564 -0.923880 0.374321
v -0.224936 0.923880 0.309597
v -0.415627 0.707107 0.572061
v -0.543043 0.382683 0.747434
v -0.587785 -0.000000 0.809016
v -0.543043 -0.382684 0.747434
v -0.415627 -0.707107 0.572061
v -0.224936 -0.923880 0.309597
v 0.000000 -1.000000 -0.000000
v -0.331414 0.923880 0.191341
v -0.612372 0.707107 0.353553
v -0.800103 0.382683 0.461939
v -0.866025 -0.000000 0.500000
v -0.800103 -0.382684 0.461939
v -0.612372 -0.707107 0.353553
v -0.331414 -0.923880 0.191341
v -0.380587 0.923880 0.040001
v -0.703233 0.707107 0.073913
v -0.918818 0.382683 0.096571
v -0.994521 -0.000000 0.104528
v -0.918818 -0.382684 0.096571
v -0.703233 -0.707107 0.073913
v -0.380587 -0.923880 0.040001
v -0.363953 0.923880 -0.118256
v -0.672498 0.707107 -0.218508
v -0.878661 0.382683 -0.285495
v -0.951056 -0.000000 -0.309017
v -0.878661 -0.382684 -0.285495
v -0.672498 -0.707107 -0.218508
v -0.363953 -0.923880 -0.118256
v -0.284389 0.923880 -0.256065
v -0.525482 0.707107 -0.473147
v -0.686576 0.382683 -0.618196
v -0.743144 -0.000000 -0.669131
v -0.686576 -0.382684 -0.618196
v -0.525482 -0.707107 -0.473147
v -0.284389 -0.923880 -0.256065
v -0.155651 0.923880 -0.349599
v -0.287606 0.707107 -0.645974
v -0.375775 0.382683 -0.844006
v -0.406736 -0.000000 -0.913545
v -0.375775 -0.382684 -0.844006
v -0.287606 -0.707107 -0.645974
v -0.155651 -0.923880 -0.349599
v 0.000000 -0.382684 -0.923879
v 0.000000 -0.707107 -0.707106
vt 0.733333 0.250000
vt 0.666667 0.125000
vt 0.733333 0.125000
vt 0.733333 0.375000
vt 0.666667 0.500000
vt 0.666667 0.375000
vt 0.733333 0.750000
vt 0.666667 0.625000
vt 0.733333 0.625000
vt 0.733333 0.875000
vt 0.700000 1.000000
vt 0.666667 0.875000
vt 0.700000 0.000000
vt 0.666667 0.250000
vt 0.733333 0.500000
vt 0.666667 0.750000
vt 0.633333 1.000000
vt 0.600000 0.875000
vt 0.633333 0.000000
vt 0.600000 0.125000
vt 0.600000 0.250000
vt 0.600000 0.500000
vt 0.600000 0.750000
vt 0.600000 0.375000
vt 0.600000 0.625000
vt 0.533333 0.250000
vt 0.533333 0.500000
vt 0.533333 0.750000
vt 0.533333 0.125000
vt 0.533333 0.375000
vt 0.533333 0.625000
vt 0.566667 1.000000
vt 0.533333 0.875000
vt 0.566667 0.000000
vt 0.466667 0.125000
vt 0.466667 0.375000
vt 0.466667 0.625000
vt 0.500000 1.000000
vt 0.466667 0.875000
vt 0.500000 0.000000
vt 0.466667 0.250000
vt 0.466667 0.500000
vt 0.466667 0.750000
vt 0.400000 0.375000
vt 0.400000 0.625000
vt 0.433333 1.000000
vt 0.400000 0.875000
vt 0.433333 0.000000
vt 0.400000 0.125000
vt 0.400000 0.250000
vt 0.400000 0.500000
vt 0.400000 0.750000
vt 0.366667 0.000000
vt 0.333333 0.125000
vt 0.333333 0.250000
vt 0.333333 0.500000
vt 0.333333 0.750000
vt 0.333333 0.375000
vt 0.333333 0.625000
vt 0.366667 1.000000
vt 0.333333 0.875000
vt 0.266667 0.625000
vt 0.266667 0.500000
vt 0.266667 0.750000
vt 0.266667 0.250000
vt 0.266667 0.125000
vt 0.266667 0.375000
vt 0.300000 1.000000
vt 0.266667 0.875000
vt 0.300000 0.000000
vt 0.200000 0.125000
vt 0.200000 0.500000
vt 0.200000 0.375000
vt 0.200000 0.625000
vt 0.233333 1.000000
vt 0.200000 0.875000
vt 0.233333 0.000000
vt 0.200000 0.250000
vt 0.200000 0.750000
vt 0.133333 0.750000
vt 0.133333 0.625000
vt 0.166667 1.000000
vt 0.133333 0.875000
vt 0.166667 0.000000
vt 0.133333 0.125000
vt 0.133333 0.250000
vt 0.133333 0.500000
vt 0.133333 0.375000
vt 0.100000 0.000000
vt 0.066667 0.125000
vt 0.066667 0.375000
vt 0.066667 0.250000
vt 0.066667 0.625000
vt 0.066667 0.500000
vt 0.066667 0.750000
vt 0.100000 1.000000
vt 0.066667 0.875000
vt 0.000000 0.750000
vt 0.000000 0.125000
vt 0.000000 0.500000
vt 0.000000 0.375000
vt 0.000000 0.625000
vt 0.033333 1.000000
vt 0.000000 0.875000
vt 0.033333 0.000000
vt 0.000000 0.250000
vt 1.000000 0.250000
vt 0.933333 0.125000
vt 1.000000 0.125000
vt 1.000000 0.500000
vt 0.933333 0.375000
vt 1.000000 0.375000
vt 1.000000 0.750000
vt 0.933333 0.625000
vt 1.000000 0.625000
vt 1.000000 0.875000
vt 0.966667 1.000000
vt 0.933333 0.875000
vt 0.966667 0.000000
vt 0.933333 0.250000
vt 0.933333 0.500000
vt 0.933333 0.750000
vt 0.900000 1.000000
vt 0.866667 0.875000
vt 0.900000 0.000000
vt 0.866667 0.125000
vt 0.866667 0.250000
vt 0.866667 0.500000
vt 0.866667 0.750000
vt 0.866667 0.375000
vt 0.866667 0.625000
vt 0.800000 0.250000
vt 0.800000 0.625000
vt 0.800000 0.500000
vt 0.800000 0.750000
vt 0.800000 0.125000
vt 0.800000 0.375000
vt 0.833333 1.000000
vt 0.800000 0.875000
vt 0.833333 0.000000
vt 0.766667 1.000000
vt 0.766667 0.000000
vn 0.1173 -0.8257 -0.5517
vn 0.2041 -0.1910 -0.9601
vn 0.1740 0.5471 -0.8188
vn 0.0414 0.9799 -0.1949
vn 0.0414 -0.9799 -0.1949
vn 0.1740 -0.5471 -0.8188
vn 0.2041 0.1910 -0.9601
vn 0.1173 0.8257 -0.5517
vn 0.1171 0.9799 -0.1612
vn 0.1171 -0.9799 -0.1612
vn 0.4920 -0.5471 -0.6772
vn 0.5770 0.1910 -0.7941
vn 0.3315 0.8257 -0.4563
vn 0.3315 -0.8257 -0.4563
vn 0.5770 -0.1910 -0.7941
vn 0.4920 0.5471 -0.6772
vn 0.7249 -0.5471 -0.4185
vn 0.8501 0.1910 -0.4908
vn 0.4885 0.8257 -0.2820
vn 0.4885 -0.8257 -0.2820
vn 0.8501 -0.1910 -0.4908
vn 0.7249 0.5471 -0.4185
vn 0.1726 0.9799 -0.0996
vn 0.1726 -0.9799 -0.0996
vn 0.5610 -0.8257 -0.0590
vn 0.9762 -0.1910 -0.1026
vn 0.8325 0.5471 -0.0875
vn 0.1982 0.9799 -0.0208
vn 0.1982 -0.9799 -0.0208
vn 0.8325 -0.5471 -0.0875
vn 0.9762 0.1910 -0.1026
vn 0.5610 0.8257 -0.0590
vn 0.9336 -0.1910 0.3033
vn 0.7961 0.5471 0.2587
vn 0.1895 0.9799 0.0616
vn 0.1895 -0.9799 0.0616
vn 0.7961 -0.5471 0.2587
vn 0.9336 0.1910 0.3033
vn 0.5365 0.8257 0.1743
vn 0.5365 -0.8257 0.1743
vn 0.1481 -0.9799 0.1333
vn 0.6221 -0.5471 0.5601
vn 0.7295 0.1910 0.6568
vn 0.4192 0.8257 0.3774
vn 0.4192 -0.8257 0.3774
vn 0.7295 -0.1910 0.6568
vn 0.6221 0.5471 0.5601
vn 0.1481 0.9799 0.1333
vn 0.3992 0.1910 0.8967
vn 0.2294 0.8257 0.5153
vn 0.2294 -0.8257 0.5153
vn 0.3992 -0.1910 0.8967
vn 0.3405 0.5471 0.7647
vn 0.0811 0.9799 0.1820
vn 0.0811 -0.9799 0.1820
vn 0.3405 -0.5471 0.7647
vn 0.0000 -0.8257 0.5641
vn 0.0000 -0.1910 0.9816
vn -0.0000 0.5471 0.8371
vn 0.0000 0.9799 0.1993
vn 0.0000 -0.9799 0.1993
vn 0.0000 -0.5471 0.8371
vn -0.0000 0.1910 0.9816
vn 0.0000 0.8257 0.5641
vn -0.3405 0.5471 0.7647
vn -0.0811 0.9799 0.1820
vn -0.0811 -0.9799 0.1820
vn -0.3405 -0.5471 0.7647
vn -0.3992 0.1910 0.8967
vn -0.2294 0.8257 0.5153
vn -0.2294 -0.8257 0.5153
vn -0.3992 -0.1910 0.8967
vn -0.1481 -0.9799 0.1333
vn -0.6221 -0.5471 0.5601
vn -0.7295 0.1910 0.6568
vn -0.4192 0.8257 0.3774
vn -0.4192 -0.8257 0.3774
vn -0.7295 -0.1910 0.6568
vn -0.6221 0.5471 0.5601
vn -0.1481 0.9799 0.1333
vn -0.5365 0.8257 0.1743
vn -0.5365 -0.8257 0.1743
vn -0.9336 -0.1910 0.3033
vn -0.7961 0.5471 0.2587
vn -0.1895 0.9799 0.0616
vn -0.1895 -0.9799 0.0616
vn -0.7961 -0.5471 0.2587
vn -0.9336 0.1910 0.3033
vn -0.5610 -0.8257 -0.0590
vn -0.9762 -0.1910 -0.1026
vn -0.8325 0.5471 -0.0875
vn -0.1982 0.9799 -0.0208
vn -0.1982 -0.9799 -0.0208
vn -0.8325 -0.5471 -0.0875
vn -0.9762 0.1910 -0.1026
vn -0.5610 0.8257 -0.0590
vn -0.1726 0.9799 -0.0996
vn -0.1726 -0.9799 -0.0996
vn -0.7249 -0.5471 -0.4185
vn -0.8501 0.1910 -0.4908
vn -0.4885 0.8257 -0.2820
vn -0.4885 -0.8257 -0.2820
vn -0.8501 -0.1910 -0.4908
vn -0.7249 0.5471 -0.4185
vn -0.4920 -0.5471 -0.6772
vn -0.5770 0.1910 -0.7941
vn -0.3315 0.8257 -0.4563
vn -0.3315 -0.8257 -0.4563
vn -0.5770 -0.1910 -0.7941
vn -0.4920 0.5471 -0.6772
vn -0.1171 0.9799 -0.1612
vn -0.1171 -0.9799 -0.1612
vn -0.1173 -0.8257 -0.5517
vn -0.2041 -0.1910 -0.9601
vn -0.1740 0.5471 -0.8188
vn -0.0414 0.9799 -0.1949
vn -0.0414 -0.9799 -0.1949
vn -0.1740 -0.5471 -0.8188
vn -0.2041 0.1910 -0.9601
vn -0.1173 0.8257 -0.5517
vn -0.3993 0.1910 0.8967
vn -0.3993 -0.1910 0.8967
s off
f 107/1/1 13/2/1 6/3/1
f 106/4/2 10/5/2 11/6/2
f 3/7/3 9/8/3 4/9/3
f 2/10/4 1/11/4 7/12/4
f 70/13/5 6/3/5 13/2/5
f 106/4/6 12/14/6 107/1/6
f 4/9/7 10/5/7 5/15/7
f 2/10/8 8/16/8 3/7/8
f 7/12/9 1/17/9 14/18/9
f 70/19/10 13/2/10 20/20/10
f 11/6/11 19/21/11 12/14/11
f 9/8/12 17/22/12 10/5/12
f 7/12/13 15/23/13 8/16/13
f 13/2/14 19/21/14 20/20/14
f 10/5/15 18/24/15 11/6/15
f 9/8/16 15/23/16 16/25/16
f 18/24/17 26/26/17 19/21/17
f 16/25/18 24/27/18 17/22/18
f 14/18/19 22/28/19 15/23/19
f 19/21/20 27/29/20 20/20/20
f 18/24/21 24/27/21 25/30/21
f 15/23/22 23/31/22 16/25/22
f 14/18/23 1/32/23 21/33/23
f 70/34/24 20/20/24 27/29/24
f 26/26/25 34/35/25 27/29/25
f 24/27/26 32/36/26 25/30/26
f 22/28/27 30/37/27 23/31/27
f 21/33/28 1/38/28 28/39/28
f 70/40/29 27/29/29 34/35/29
f 25/30/30 33/41/30 26/26/30
f 23/31/31 31/42/31 24/27/31
f 21/33/32 29/43/32 22/28/32
f 31/42/33 39/44/33 32/36/33
f 29/43/34 37/45/34 30/37/34
f 28/39/35 1/46/35 35/47/35
f 70/48/36 34/35/36 41/49/36
f 33/41/37 39/44/37 40/50/37
f 30/37/38 38/51/38 31/42/38
f 28/39/39 36/52/39 29/43/39
f 33/41/40 41/49/40 34/35/40
f 70/53/41 41/49/41 48/54/41
f 39/44/42 47/55/42 40/50/42
f 37/45/43 45/56/43 38/51/43
f 35/47/44 43/57/44 36/52/44
f 41/49/45 47/55/45 48/54/45
f 38/51/46 46/58/46 39/44/46
f 36/52/47 44/59/47 37/45/47
f 35/47/48 1/60/48 42/61/48
f 45/56/49 51/62/49 52/63/49
f 42/61/50 50/64/50 43/57/50
f 48/54/51 54/65/51 55/66/51
f 45/56/52 53/67/52 46/58/52
f 43/57/53 51/62/53 44/59/53
f 42/61/54 1/68/54 49/69/54
f 70/70/55 48/54/55 55/66/55
f 46/58/56 54/65/56 47/55/56
f 54/65/57 62/71/57 55/66/57
f 53/67/58 59/72/58 60/73/58
f 50/64/59 58/74/59 51/62/59
f 49/69/60 1/75/60 56/76/60
f 70/77/61 55/66/61 62/71/61
f 54/65/62 60/73/62 61/78/62
f 51/62/63 59/72/63 52/63/63
f 49/69/64 57/79/64 50/64/64
f 58/74/65 64/80/65 65/81/65
f 56/76/66 1/82/66 63/83/66
f 70/84/67 62/71/67 69/85/67
f 60/73/68 68/86/68 61/78/68
f 58/74/69 66/87/69 59/72/69
f 57/79/70 63/83/70 64/80/70
f 61/78/71 69/85/71 62/71/71
f 59/72/72 67/88/72 60/73/72
f 70/89/73 69/85/73 77/90/73
f 68/86/74 75/91/74 76/92/74
f 66/87/75 73/93/75 74/94/75
f 63/83/76 72/95/76 64/80/76
f 68/86/77 77/90/77 69/85/77
f 66/87/78 75/91/78 67/88/78
f 64/80/79 73/93/79 65/81/79
f 63/83/80 1/96/80 71/97/80
f 71/97/81 79/98/81 72/95/81
f 76/92/82 84/99/82 77/90/82
f 75/91/83 81/100/83 82/101/83
f 73/93/84 79/98/84 80/102/84
f 71/97/85 1/103/85 78/104/85
f 70/105/86 77/90/86 84/99/86
f 75/91/87 83/106/87 76/92/87
f 74/94/88 80/102/88 81/100/88
f 83/107/89 91/108/89 84/109/89
f 81/110/90 89/111/90 82/112/90
f 79/113/91 87/114/91 80/115/91
f 78/116/92 1/117/92 85/118/92
f 70/119/93 84/109/93 91/108/93
f 82/112/94 90/120/94 83/107/94
f 80/115/95 88/121/95 81/110/95
f 78/116/96 86/122/96 79/113/96
f 85/118/97 1/123/97 92/124/97
f 70/125/98 91/108/98 98/126/98
f 89/111/99 97/127/99 90/120/99
f 87/114/100 95/128/100 88/121/100
f 85/118/101 93/129/101 86/122/101
f 91/108/102 97/127/102 98/126/102
f 88/121/103 96/130/103 89/111/103
f 87/114/104 93/129/104 94/131/104
f 96/130/105 104/132/105 97/127/105
f 95/128/106 101/133/106 102/134/106
f 92/124/107 100/135/107 93/129/107
f 98/126/108 104/132/108 105/136/108
f 95/128/109 103/137/109 96/130/109
f 93/129/110 101/133/110 94/131/110
f 92/124/111 1/138/111 99/139/111
f 70/140/112 98/126/112 105/136/112
f 104/132/113 6/3/113 105/136/113
f 102/134/114 106/4/114 103/137/114
f 101/133/115 3/7/115 4/9/115
f 99/139/116 1/141/116 2/10/116
f 70/142/117 105/136/117 6/3/117
f 103/137/118 107/1/118 104/132/118
f 101/133/119 5/15/119 102/134/119
f 100/135/120 2/10/120 3/7/120
f 107/1/1 12/14/1 13/2/1
f 106/4/2 5/15/2 10/5/2
f 3/7/3 8/16/3 9/8/3
f 106/4/6 11/6/6 12/14/6
f 4/9/7 9/8/7 10/5/7
f 2/10/8 7/12/8 8/16/8
f 11/6/11 18/24/11 19/21/11
f 9/8/12 16/25/12 17/22/12
f 7/12/13 14/18/13 15/23/13
f 13/2/14 12/14/14 19/21/14
f 10/5/15 17/22/15 18/24/15
f 9/8/16 8/16/16 15/23/16
f 18/24/17 25/30/17 26/26/17
f 16/25/18 23/31/18 24/27/18
f 14/18/19 21/33/19 22/28/19
f 19/21/20 26/26/20 27/29/20
f 18/24/21 17/22/21 24/27/21
f 15/23/22 22/28/22 23/31/22
f 26/26/25 33/41/25 34/35/25
f 24/27/26 31/42/26 32/36/26
f 22/28/27 29/43/27 30/37/27
f 25/30/30 32/36/30 33/41/30
f 23/31/31 30/37/31 31/42/31
f 21/33/32 28/39/32 29/43/32
f 31/42/33 38/51/33 39/44/33
f 29/43/34 36/52/34 37/45/34
f 33/41/37 32/36/37 39/44/37
f 30/37/38 37/45/38 38/51/38
f 28/39/39 35/47/39 36/52/39
f 33/41/40 40/50/40 41/49/40
f 39/44/42 46/58/42 47/55/42
f 37/45/43 44/59/43 45/56/43
f 35/47/44 42/61/44 43/57/44
f 41/49/45 40/50/45 47/55/45
f 38/51/46 45/56/46 46/58/46
f 36/52/47 43/57/47 44/59/47
f 45/56/49 44/59/49 51/62/49
f 42/61/50 49/69/50 50/64/50
f 48/54/51 47/55/51 54/65/51
f 45/56/52 52/63/52 53/67/52
f 43/57/53 50/64/53 51/62/53
f 46/58/56 53/67/56 54/65/56
f 54/65/57 61/78/57 62/71/57
f 53/67/58 52/63/58 59/72/58
f 50/64/59 57/79/59 58/74/59
f 54/65/62 53/67/62 60/73/62
f 51/62/63 58/74/63 59/72/63
f 49/69/64 56/76/64 57/79/64
f 58/74/65 57/79/65 64/80/65
f 60/73/68 67/88/68 68/86/68
f 58/74/121 65/81/121 66/87/121
f 57/79/70 56/76/70 63/83/70
f 61/78/71 68/86/71 69/85/71
f 59/72/122 66/87/122 67/88/122
f 68/86/74 67/88/74 75/91/74
f 66/87/75 65/81/75 73/93/75
f 63/83/76 71/97/76 72/95/76
f 68/86/77 76/92/77 77/90/77
f 66/87/78 74/94/78 75/91/78
f 64/80/79 72/95/79 73/93/79
f 71/97/81 78/104/81 79/98/81
f 76/92/82 83/106/82 84/99/82
f 75/91/83 74/94/83 81/100/83
f 73/93/84 72/95/84 79/98/84
f 75/91/87 82/101/87 83/106/87
f 74/94/88 73/93/88 80/102/88
f 83/107/89 90/120/89 91/108/89
f 81/110/90 88/121/90 89/111/90
f 79/113/91 86/122/91 87/114/91
f 82/112/94 89/111/94 90/120/94
f 80/115/95 87/114/95 88/121/95
f 78/116/96 85/118/96 86/122/96
f 89/111/99 96/130/99 97/127/99
f 87/114/100 94/131/100 95/128/100
f 85/118/101 92/124/101 93/129/101
f 91/108/102 90/120/102 97/127/102
f 88/121/103 95/128/103 96/130/103
f 87/114/104 86/122/104 93/129/104
f 96/130/105 103/137/105 104/132/105
f 95/128/106 94/131/106 101/133/106
f 92/124/107 99/139/107 100/135/107
f 98/126/108 97/127/108 104/132/108
f 95/128/109 102/134/109 103/137/109
f 93/129/110 100/135/110 101/133/110
f 104/132/113 107/1/113 6/3/113
f 102/134/114 5/15/114 106/4/114
f 101/133/115 100/135/115 3/7/115
f 103/137/118 106/4/118 107/1/118
f 101/133/119 4/9/119 5/15/119
f 100/135/120 99/139/120 2/10/120
